PathFileType	4	(X/Y/Z)	C:\Users\Owen\Repositories\CapacitiveSensingKinematics\CSOptimalControl\OutputData\FilteredIMUAccels.trc
DataRate	CameraRate	NumFrames	NumMarkers	Units	OrigDataRate	OrigDataStartFrame	OrigNumFrames
100	100	22	8	m	100	2646	7057
Frame#	Time	/bodyset/torso/torso_imu_offset			/bodyset/pelvis/pelvis_imu_offset			/bodyset/tibia_r/tibia_r_imu_offset			/bodyset/femur_r/femur_r_imu_offset			/bodyset/tibia_l/tibia_l_imu_offset			/bodyset/femur_l/femur_l_imu_offset			/bodyset/toes_r/toes_r_imu_offset			/bodyset/toes_l/toes_l_imu_offset			
		X1	Y1	Z1	X2	Y2	Z2	X3	Y3	Z3	X4	Y4	Z4	X5	Y5	Z5	X6	Y6	Z6	X7	Y7	Z7	X8	Y8	Z8	

2647	26.46	9.683973799953682	-1.07002177637944	6.704645158646277	10.26488117758198	1.884534394896816	4.178982742382376	10.73263984436305	0.3935123171964333	1.77565738790061	10.3521166650627	-2.241696729142815	-1.376577601560578	3.283458059036355	-9.523434964640005	4.845361723334233	11.76029420511009	-0.08817244819559332	1.032361279013308	4.061746760051053	0.8519002902645998	9.305546774772791	10.13010271462473	6.927842695334797	16.71308419870837	
2648	26.47	9.531042776165126	-0.8826823073694144	6.785778316183288	10.30815559862279	1.720215344974407	3.925853497612112	10.71631458054516	-1.896647347463686	1.71469628465788	9.48989137616427	-1.880327954408	-0.8167786457708595	2.006226747610267	-9.725866294998308	5.323653710739807	11.65284432494995	0.4224551161790263	1.049658805964987	3.874081039374936	0.5308100981718882	9.23927633417253	9.438077180923008	7.29295919026968	17.13300808862794	
2649	26.48	9.295654166462509	-0.6919272094643563	6.854096691930378	10.22801622182541	1.220662637710942	3.706243430165775	10.52689309352633	-2.976539525264413	1.312601991889527	8.831331287328057	-1.363276347387754	-0.2624344678235783	0.831109779144876	-9.682103115437979	5.662354575179425	11.6293412676863	0.892512647739317	0.9797400904047968	3.746508420691742	0.1971340940193007	9.165695998221155	7.701743581827756	7.429453266587749	16.30391085180672	
2650	26.49	9.075433783438152	-0.5196072874038403	6.901370299286073	10.04279596060973	0.5681351082186064	3.510986364682688	10.26050583978684	-2.689354428354979	0.7434052684236387	8.504576482783932	-0.831726412265933	0.1997735475220735	-0.06828516450287184	-9.217481908099801	5.730129641791499	11.67504812593779	1.319105737117063	0.8401856316043552	3.685860952137395	-0.05252476004748059	9.100969502139387	4.958882348524251	7.163435322745148	14.13543209021344	
2651	26.5	8.918747031121349	-0.3839248274327026	6.930078709475903	9.766133203468167	-0.06289044636963109	3.329657114705724	9.992718793507484	-1.21942316102915	0.2329608391164667	8.496666254235274	-0.3916021161350293	0.5221036198460941	-0.6125402889208943	-8.197975633606598	5.527244955754031	11.7236406040794	1.665250501839709	0.6625696772286278	3.68532920570331	-0.1644394226614038	9.059537193058629	2.014734760665898	6.422084814048169	11.30005599635812	
2652	26.51	8.804409487877749	-0.2911223963806555	6.942609748503638	9.429135099783775	-0.5454451683091562	3.156880915787534	9.751369970781209	0.9868168915213981	-0.03586554155044457	8.710688654225414	-0.111365677663127	0.6855228498204207	-0.886368971183643	-6.671028866645473	5.255995592271095	11.68766101558855	1.876027441795113	0.493149394329371	3.728907776983521	-0.1409430430884772	9.044137951493122	-0.2258416531214583	5.334280622990688	8.783739669304959	
2653	26.52	8.671435072701513	-0.234211861976011	6.935678989279952	9.088148690054664	-0.8169579047426592	2.995641647354709	9.543738633028479	3.358149398314469	0.003043384767235062	9.019421147805229	-0.02074229298178423	0.6972853560043913	-1.04842935195579	-4.903268821919849	5.191317654086341	11.50584848470012	1.914909435435333	0.3776595845781828	3.798410968596419	-0.02659987089916349	9.048718470725598	-1.28577012571869	4.164425141580761	7.296276648396129	
2654	26.53	8.472606827157424	-0.2002927472916407	6.906227746702351	8.804201051254626	-0.8728583550619841	2.856622535018479	9.397498908511366	5.338101367073897	0.2825795412665058	9.308023494220118	-0.1091139368346841	0.596482444886658	-1.185745676981903	-3.285246568686854	5.467498390883731	11.16995299994398	1.790683719068081	0.3390359876097367	3.875320547090086	0.1170532318316633	9.065110228490592	-1.205132795608408	3.162842309724681	7.015397487393961	
2655	26.54	8.208041681224406	-0.1803119034425985	6.858648275024907	8.613993508525096	-0.7453834756224319	2.752563027031326	9.359533228523368	6.473815336506134	0.6567438990771838	9.50267665280437	-0.3305784326712554	0.4523787570628738	-1.257093714216569	-2.174177525176565	5.979439161715035	10.71970261882222	1.557970814058959	0.3653155437988908	3.947729314940486	0.234505038698238	9.086853001548354	-0.360969464515856	2.433426821916007	7.669024215629411	
2656	26.55	7.918446808202892	-0.1729412499305613	6.804415647793075	8.517376827500673	-0.4837834136610903	2.689289534868073	9.451615528809485	6.482778105457592	0.9900406213444072	9.580582733127258	-0.6203457111257845	0.3404423315152834	-1.157572039517236	-1.759685169945879	6.477118232970859	10.2199766166222	1.297644019353838	0.4164601394246376	4.023605440365991	0.2953535641495035	9.109498882201066	0.7823517795577948	1.889889017678781	8.773507364525862	
2657	26.56	7.654975973924763	-0.1806599123433543	6.756092414693822	8.48837792294265	-0.1450708637766453	2.661340943734408	9.634668485544205	5.343602581854789	1.212703498708882	9.560971632482296	-0.9164830034462396	0.3078894703261456	-0.8220510212486993	-2.005955052815734	6.74872775304666	9.733857842703179	1.088389126476305	0.4481311951621669	4.122766530192192	0.299436405415774	9.125307453500445	1.857239126237221	1.330458019421307	9.867012471084859	
2658	26.57	7.453765795581807	-0.203201110701213	6.721282756624444	8.498105324536798	0.2097713134581407	2.656232165107154	9.823261252276252	3.361722657681179	1.311759975073001	9.484088857024716	-1.17607220236292	0.3575268072361434	-0.2732558683095898	-2.685424345273383	6.728437817180813	9.302984379151832	0.9802701548869853	0.4367472889609018	4.245818188253248	0.2641465749568964	9.124296377726751	2.678189881295381	0.5800850465456586	10.65812819761137	
2659	26.58	7.32797782153289	-0.2349561136089832	6.700790754721822	8.530889285272531	0.5215284201437637	2.660930312457811	9.938871498635047	1.108456671587891	1.296250656273316	9.389417300096639	-1.382389883576906	0.4583266379068458	0.3993799654258076	-3.475337508461009	6.470218027174391	8.944220819789868	0.9827057551695673	0.3835001896049677	4.3653822379203	0.2084917356069557	9.103871593569478	3.25254836712796	-0.3963974784958777	11.07072767590883	
2660	26.59	7.273191732629895	-0.2687060063768237	6.692279436497333	8.583783098005549	0.7409541795281641	2.664731779501368	9.955600157836964	-0.7751932526783909	1.184850270744159	9.302704788272978	-1.546043140057908	0.565215749729394	1.086884323486495	-4.071324563416052	6.062959950547967	8.65931546822083	1.066299566860355	0.2981489952893172	4.455857288934306	0.1471089522488089	9.070019712751488	3.724443575084375	-1.474478691101861	11.19960351607077	
2661	26.6	7.276977240194947	-0.3010170800820803	6.695702075288215	8.654645293079435	0.8362924314534361	2.660047015942859	9.90131420500173	-1.804449264467461	1.016572666313749	9.23301511759945	-1.69988263718949	0.6319505781926765	1.705209414510207	-4.289093974163587	5.579207509249048	8.44412458717021	1.171979219707736	0.1856683155707831	4.516810016129443	0.09499137969291774	9.030860763173861	4.267059502215421	-2.442988977116763	11.21524967498057	
2662	26.61	7.325756002056054	-0.3332089278095917	6.714945552588482	8.731670654822889	0.7979136855688668	2.643137388124014	9.818572331373227	-1.800069149989669	0.8502968032627923	9.174481016859472	-1.885740213894832	0.6193959017866411	2.231943604465747	-4.126741718441868	5.067351555074334	8.288212742584353	1.22621261263678	0.04516551678975717	4.55920730904933	0.0704749910133291	8.994418221561746	4.97951159635616	-3.117128724961794	11.26557568059244	
2663	26.62	7.405917935142477	-0.3678699230844332	6.754567973489499	8.794884149053249	0.639815285379143	2.613899820987458	9.730099390358172	-0.9189186405953574	0.7384612227143273	9.112073007995837	-2.135081784839738	0.5084408665469025	2.721485835474514	-3.749748447460314	4.551407430172665	8.170807980310116	1.161181099007034	-0.1266588275316824	4.581884591402764	0.08448101572828601	8.967815711232994	5.845388814738874	-3.420414502954868	11.41631889500809	
2664	26.63	7.502775707285974	-0.4055675354654968	6.815415550845872	8.828752599105618	0.3971740427618929	2.573743875697738	9.642763925448895	0.4308779379992109	0.70191076430321	9.033346018282129	-2.45060945494137	0.3133399824883845	3.275523079636759	-3.393862957974554	4.033314804488359	8.064156109012451	0.9394093308668732	-0.3317896931590928	4.571874940289446	0.1271382004972391	8.955363721459392	6.760975300768956	-3.387913834113268	11.65000750007275	
2665	26.64	7.603182097334684	-0.4447275599692685	6.893588923045395	8.833712790909997	0.1196364321953205	2.522824426197579	9.571596627939481	1.749451311420014	0.7302685955621817	8.939036429445423	-2.798456597594947	0.0813621527155368	3.972742371516849	-3.243118656179454	3.51311795753779	7.946399260558251	0.5745364958599537	-0.5620316226553551	4.524965728150648	0.1733094512894836	8.957223357662709	7.601444667801318	-3.104231992317934	11.91287779221841	
2666	26.65	7.700116103507128	-0.4833680631058153	6.983233734490335	8.827075448660619	-0.1375581552247062	2.459832581026064	9.544945151629991	2.6123188712042	0.7954672790311477	8.842333446076932	-3.115865711957487	-0.1241396334813313	4.806089929023465	-3.35560803726731	3.019779033398986	7.817820558561182	0.1349857697195858	-0.7885733203642858	4.45928223510038	0.2037173618754536	8.968544022139659	8.28743418538096	-2.644593007094513	12.17145633701896	
2667	26.66	7.793213056738296	-0.5201913821207556	7.079532972693523	8.834472915315093	-0.3255572364377763	2.384939191385699	9.581609886909453	2.796532924117971	0.8642363920983765	8.759082916983999	-3.330505098678632	-0.2467194742405452	5.683645105332751	-3.66196340415274	2.625306706826685	7.707490832555168	-0.269892449679126	-0.9685945600482918	4.403767713136554	0.2164819536969429	8.982540099351427	8.819631305025723	-2.068776024353459	12.43630983671604	
2668	26.67	7.884614118988464	-0.5548613623732601	7.179575109333222	8.878122491206694	-0.4165225328168874	2.301842503029963	9.666604923520664	2.342000790939462	0.9110111157958999	8.701316445760359	-3.384509071663569	-0.2576454290020614	6.49379191733334	-4.0116547556449	2.422544121596587	7.659360087516261	-0.5200597013041414	-1.067783101816098	4.373747035339195	0.2193498616464319	8.995559918458632	9.26589430723585	-1.445425853181109	12.74201181321677	
